<svg width="54" height="54" viewBox="0 0 54 54" fill="none" xmlns="http://www.w3.org/2000/svg">
<g filter="url(#filter0_d_1_513)">
<path d="M37.9236 12.0764C36.8411 10.9939 35.3741 10.722 34.4038 11.2873C31.6425 12.8957 25.9077 8.79931 19.3535 15.3535C12.7993 21.9077 16.8957 27.6425 15.2873 30.4037C14.722 31.3741 14.9939 32.8411 16.0764 33.9237C17.1589 35.0062 18.626 35.2779 19.5964 34.7127C22.3574 33.1044 28.0923 37.2007 34.6465 30.6466C41.2006 24.0924 37.1044 18.3575 38.7127 15.5964C39.2779 14.626 39.0062 13.1589 37.9236 12.0764ZM26.4319 15.4776C23.7043 16.1595 20.1597 19.7036 19.4776 22.4319C19.3925 22.7727 19.0866 23.0002 18.7506 23.0002C18.6904 23.0002 18.6292 22.9929 18.5681 22.9776C18.1663 22.8771 17.922 22.47 18.0224 22.0681C18.8391 18.8013 22.7961 14.8405 26.0681 14.0224C26.47 13.922 26.8772 14.1663 26.9776 14.5681C27.078 14.97 26.8337 15.3771 26.4319 15.4776Z" fill="#FFC700"/>
<path d="M37.9236 12.0764C36.8411 10.9939 35.3741 10.722 34.4038 11.2873C31.6425 12.8957 25.9077 8.79931 19.3535 15.3535C12.7993 21.9077 16.8957 27.6425 15.2873 30.4037C14.722 31.3741 14.9939 32.8411 16.0764 33.9237C17.1589 35.0062 18.626 35.2779 19.5964 34.7127C22.3574 33.1044 28.0923 37.2007 34.6465 30.6466C41.2006 24.0924 37.1044 18.3575 38.7127 15.5964C39.2779 14.626 39.0062 13.1589 37.9236 12.0764ZM26.4319 15.4776C23.7043 16.1595 20.1597 19.7036 19.4776 22.4319C19.3925 22.7727 19.0866 23.0002 18.7506 23.0002C18.6904 23.0002 18.6292 22.9929 18.5681 22.9776C18.1663 22.8771 17.922 22.47 18.0224 22.0681C18.8391 18.8013 22.7961 14.8405 26.0681 14.0224C26.47 13.922 26.8772 14.1663 26.9776 14.5681C27.078 14.97 26.8337 15.3771 26.4319 15.4776Z" fill="#FFC700"/>
<path d="M37.9236 12.0764C36.8411 10.9939 35.3741 10.722 34.4038 11.2873C31.6425 12.8957 25.9077 8.79931 19.3535 15.3535C12.7993 21.9077 16.8957 27.6425 15.2873 30.4037C14.722 31.3741 14.9939 32.8411 16.0764 33.9237C17.1589 35.0062 18.626 35.2779 19.5964 34.7127C22.3574 33.1044 28.0923 37.2007 34.6465 30.6466C41.2006 24.0924 37.1044 18.3575 38.7127 15.5964C39.2779 14.626 39.0062 13.1589 37.9236 12.0764ZM26.4319 15.4776C23.7043 16.1595 20.1597 19.7036 19.4776 22.4319C19.3925 22.7727 19.0866 23.0002 18.7506 23.0002C18.6904 23.0002 18.6292 22.9929 18.5681 22.9776C18.1663 22.8771 17.922 22.47 18.0224 22.0681C18.8391 18.8013 22.7961 14.8405 26.0681 14.0224C26.47 13.922 26.8772 14.1663 26.9776 14.5681C27.078 14.97 26.8337 15.3771 26.4319 15.4776Z" fill="#FFC700"/>
<path d="M37.9236 12.0764C36.8411 10.9939 35.3741 10.722 34.4038 11.2873C31.6425 12.8957 25.9077 8.79931 19.3535 15.3535C12.7993 21.9077 16.8957 27.6425 15.2873 30.4037C14.722 31.3741 14.9939 32.8411 16.0764 33.9237C17.1589 35.0062 18.626 35.2779 19.5964 34.7127C22.3574 33.1044 28.0923 37.2007 34.6465 30.6466C41.2006 24.0924 37.1044 18.3575 38.7127 15.5964C39.2779 14.626 39.0062 13.1589 37.9236 12.0764ZM26.4319 15.4776C23.7043 16.1595 20.1597 19.7036 19.4776 22.4319C19.3925 22.7727 19.0866 23.0002 18.7506 23.0002C18.6904 23.0002 18.6292 22.9929 18.5681 22.9776C18.1663 22.8771 17.922 22.47 18.0224 22.0681C18.8391 18.8013 22.7961 14.8405 26.0681 14.0224C26.47 13.922 26.8772 14.1663 26.9776 14.5681C27.078 14.97 26.8337 15.3771 26.4319 15.4776Z" fill="#FFC700"/>
<path d="M37.9236 12.0764C36.8411 10.9939 35.3741 10.722 34.4038 11.2873C31.6425 12.8957 25.9077 8.79931 19.3535 15.3535C12.7993 21.9077 16.8957 27.6425 15.2873 30.4037C14.722 31.3741 14.9939 32.8411 16.0764 33.9237C17.1589 35.0062 18.626 35.2779 19.5964 34.7127C22.3574 33.1044 28.0923 37.2007 34.6465 30.6466C41.2006 24.0924 37.1044 18.3575 38.7127 15.5964C39.2779 14.626 39.0062 13.1589 37.9236 12.0764ZM26.4319 15.4776C23.7043 16.1595 20.1597 19.7036 19.4776 22.4319C19.3925 22.7727 19.0866 23.0002 18.7506 23.0002C18.6904 23.0002 18.6292 22.9929 18.5681 22.9776C18.1663 22.8771 17.922 22.47 18.0224 22.0681C18.8391 18.8013 22.7961 14.8405 26.0681 14.0224C26.47 13.922 26.8772 14.1663 26.9776 14.5681C27.078 14.97 26.8337 15.3771 26.4319 15.4776Z" fill="#FFC700"/>
</g>
<defs>
<filter id="filter0_d_1_513" x="0" y="0" width="54" height="54" filterUnits="userSpaceOnUse" color-interpolation-filters="sRGB">
<feFlood flood-opacity="0" result="BackgroundImageFix"/>
<feColorMatrix in="SourceAlpha" type="matrix" values="0 0 0 0 0 0 0 0 0 0 0 0 0 0 0 0 0 0 127 0" result="hardAlpha"/>
<feOffset dy="4"/>
<feGaussianBlur stdDeviation="7.5"/>
<feComposite in2="hardAlpha" operator="out"/>
<feColorMatrix type="matrix" values="0 0 0 0 0 0 0 0 0 0 0 0 0 0 0 0 0 0 1 0"/>
<feBlend mode="normal" in2="BackgroundImageFix" result="effect1_dropShadow_1_513"/>
<feBlend mode="normal" in="SourceGraphic" in2="effect1_dropShadow_1_513" result="shape"/>
</filter>
</defs>
</svg>
