<svg width="124" height="110" viewBox="0 0 124 110" fill="none" xmlns="http://www.w3.org/2000/svg">
<path d="M62 0C47.0188 0 34.875 12.1193 34.875 27.0703C34.875 39.1574 52.6031 61.1875 59.3951 69.184C60.7708 70.8039 63.2314 70.8039 64.6049 69.184C71.3969 61.1875 89.125 39.1574 89.125 27.0703C89.125 12.1193 76.9812 0 62 0ZM62 36.0938C57.0056 36.0938 52.9583 32.0547 52.9583 27.0703C52.9583 22.0859 57.0056 18.0469 62 18.0469C66.9944 18.0469 71.0417 22.0859 71.0417 27.0703C71.0417 32.0547 66.9944 36.0938 62 36.0938ZM4.33139 46.3955C3.05302 46.9058 1.95716 47.7866 1.18512 48.9243C0.413094 50.062 0.00030617 51.4045 0 52.7785L0 106.558C0 108.99 2.46062 110.653 4.72319 109.751L34.4444 96.25V46.1742C32.5414 42.741 30.9849 39.398 29.8698 36.2012L4.33139 46.3955ZM62 77.2729C58.971 77.2729 56.1057 75.9451 54.1402 73.6291C49.9078 68.6447 45.4064 62.9686 41.3333 57.1463V96.2478L82.6667 109.998V57.1484C78.5936 62.9686 74.0943 68.6469 69.8598 73.6312C67.8943 75.9451 65.029 77.2729 62 77.2729ZM119.277 34.6242L89.5556 48.125V110L119.669 97.9795C120.947 97.4695 122.043 96.5887 122.815 95.451C123.587 94.3132 124 92.9706 124 91.5965V37.8168C124 35.3848 121.539 33.7219 119.277 34.6242Z" fill="black"/>
</svg>
